<svg xmlns="http://www.w3.org/2000/svg" viewBox="0 0 161.01 44.27"><defs><style>.cls-1{fill:none;stroke:#fff;stroke-miterlimit:10;}</style></defs><title>logo-white-outline</title><g id="Layer_2" data-name="Layer 2"><g id="Layer_1-2" data-name="Layer 1"><path class="cls-1" d="M41.93,27.31a12,12,0,0,0-1.51-3.16,11,11,0,0,0-2.19-2.36,12.91,12.91,0,0,0-2.59-1.63,13.31,13.31,0,0,0-2.74-.95,14,14,0,0,0-2.61-.34H12.72A4.46,4.46,0,0,1,9.33,17.6a4.83,4.83,0,0,1-1.21-3.47,4.94,4.94,0,0,1,1.21-3.49,4.38,4.38,0,0,1,3.39-1.32H38.65V1.71H12.72a13.62,13.62,0,0,0-4,.66,11.58,11.58,0,0,0-7,6A12.4,12.4,0,0,0,.5,14.13a12.5,12.5,0,0,0,1.22,5.8,11.64,11.64,0,0,0,3,3.84,12.12,12.12,0,0,0,4,2.12,13.62,13.62,0,0,0,4,.66H30.24a5.08,5.08,0,0,1,1.91.35,4.13,4.13,0,0,1,1.47,1,4.33,4.33,0,0,1,.92,1.52,5.47,5.47,0,0,1,.32,1.93,4.83,4.83,0,0,1-1.21,3.46,4.46,4.46,0,0,1-3.41,1.29H.85v7.62H30.24a12.47,12.47,0,0,0,2.62-.3,12.74,12.74,0,0,0,2.74-.9,13.52,13.52,0,0,0,2.61-1.59,10,10,0,0,0,2.19-2.34,12,12,0,0,0,1.51-3.18,13.41,13.41,0,0,0,.57-4.06A13.61,13.61,0,0,0,41.93,27.31Z"/><path class="cls-1" d="M56.49,1.71H48.87v42h7.62Zm14.76,21,21.59-21H82L64.9,18.87H59.53v7.68H64.9L82,43.72H92.84Z"/><rect class="cls-1" x="152.89" y="1.71" width="7.62" height="42.01"/><polygon class="cls-1" points="123.3 1 98.61 43.77 147.99 43.77 123.3 1"/><polygon class="cls-1" points="123.3 13.71 109.47 37.66 137.13 37.66 123.3 13.71"/></g></g></svg>