<svg xmlns="http://www.w3.org/2000/svg" viewBox="0 0 802 802.36"><defs><style>.cls-1{fill:#231f20;}.cls-2{fill:#fff;}</style></defs><title>reward</title><g id="Layer_2" data-name="Layer 2"><g id="Layer_1-2" data-name="Layer 1"><circle class="cls-1" cx="401" cy="401" r="401"/><path class="cls-2" d="M401,.36A399.49,399.49,0,0,0,227,40L381.61,194.63,180.42,395.82,31,246.43A399.86,399.86,0,0,0,0,401.36c0,221.47,179.53,401,401,401s401-179.53,401-401S622.46.36,401,.36Z"/><circle class="cls-1" cx="401" cy="401.36" r="285.75"/><path class="cls-2" d="M214.15,317.91a10.5,10.5,0,0,0,1.45,5.18q2.43,3.72,8.56,3.72a14.47,14.47,0,0,0,5-.82q4.37-1.58,4.37-5.66c0-2-.62-3.49-1.85-4.35a18.34,18.34,0,0,0-5.88-2.22l-4.91-1.15a21.57,21.57,0,0,1-6.81-2.47,7.9,7.9,0,0,1-3.46-7,10.92,10.92,0,0,1,3.4-8.28q3.39-3.23,9.62-3.23a16.33,16.33,0,0,1,9.73,2.84q4,2.84,4,9.08h-4.77a9.58,9.58,0,0,0-1.56-4.61q-2.22-2.93-7.55-2.93-4.31,0-6.18,1.88a6,6,0,0,0-1.88,4.39,4.3,4.3,0,0,0,2.22,4,31.12,31.12,0,0,0,6.59,2l5.09,1.2A15.48,15.48,0,0,1,235,311.9a9,9,0,0,1,3.45,7.62q0,6.21-4.41,8.89a19.3,19.3,0,0,1-10.25,2.68q-6.81,0-10.66-3.57t-3.78-9.61Z"/><path class="cls-2" d="M244.65,302.83h4.48v3.62a11.33,11.33,0,0,1,3-2.88,9.71,9.71,0,0,1,5.47-1.53,10.27,10.27,0,0,1,7.89,3.55q3.24,3.56,3.25,10.16,0,8.91-4.69,12.74a10.6,10.6,0,0,1-6.9,2.42,9.42,9.42,0,0,1-5.2-1.35,12,12,0,0,1-2.73-2.63v13.94h-4.59Zm17.26,21.39q2.13-2.69,2.13-8a15,15,0,0,0-.94-5.61,6.55,6.55,0,0,0-6.55-4.51q-4.78,0-6.55,4.77a18.87,18.87,0,0,0-.94,6.47,13.71,13.71,0,0,0,.94,5.38,7,7,0,0,0,11.91,1.54Z"/><path class="cls-2" d="M290.91,303.45A10.39,10.39,0,0,1,295,307a12.19,12.19,0,0,1,1.82,4.82,31.53,31.53,0,0,1,.41,6H277.42a11.68,11.68,0,0,0,1.95,6.68A6.47,6.47,0,0,0,285,327a7.22,7.22,0,0,0,5.69-2.38,8,8,0,0,0,1.69-3.2h4.51a9.56,9.56,0,0,1-1.19,3.35,12.17,12.17,0,0,1-2.24,3,10.58,10.58,0,0,1-5.14,2.75,15.48,15.48,0,0,1-3.71.41,11.41,11.41,0,0,1-8.59-3.71q-3.52-3.71-3.52-10.38t3.55-10.68a11.67,11.67,0,0,1,9.27-4.1A12.26,12.26,0,0,1,290.91,303.45Zm1.65,10.72a12.12,12.12,0,0,0-1.29-4.77q-1.87-3.31-6.24-3.31a6.89,6.89,0,0,0-5.26,2.28,8.61,8.61,0,0,0-2.25,5.8Z"/><path class="cls-2" d="M303.08,302.7h4.36v3.87a12.37,12.37,0,0,1,4.1-3.44,11,11,0,0,1,4.82-1q5.81,0,7.84,4.05a14.36,14.36,0,0,1,1.12,6.35V330h-4.66v-17.2a9.19,9.19,0,0,0-.74-4,4.47,4.47,0,0,0-4.43-2.55,9.1,9.1,0,0,0-2.68.33,6.89,6.89,0,0,0-3.31,2.24,6.81,6.81,0,0,0-1.49,2.79,18.8,18.8,0,0,0-.34,4.12V330h-4.59Z"/><path class="cls-2" d="M347.1,303.54a12.21,12.21,0,0,1,2.76,2.68V292.43h4.41V330h-4.12V326.2a9.93,9.93,0,0,1-3.79,3.64,10.74,10.74,0,0,1-5,1.12,10.13,10.13,0,0,1-7.87-3.83q-3.32-3.84-3.32-10.21a17.67,17.67,0,0,1,3-10.33,9.9,9.9,0,0,1,8.67-4.37A9.69,9.69,0,0,1,347.1,303.54ZM336.86,324a6.47,6.47,0,0,0,5.93,3,6.22,6.22,0,0,0,5.21-2.74q2-2.75,2-7.86t-2.1-7.66a6.57,6.57,0,0,0-5.2-2.48,6.84,6.84,0,0,0-5.59,2.65q-2.14,2.64-2.14,7.79A13.6,13.6,0,0,0,336.86,324Z"/><path class="cls-2" d="M377.45,296.07a10.38,10.38,0,0,1,8-3.15v-3.39h2.42v3.34c3.38.23,6,1.23,7.79,3a9.69,9.69,0,0,1,2.84,6.95H394a7.6,7.6,0,0,0-1.05-3.34,5.87,5.87,0,0,0-5.12-2.7v12.41c3.94,1.11,6.62,2.14,8,3.11a8.09,8.09,0,0,1,3.44,7.09q0,6.78-4.41,9.63a16.51,16.51,0,0,1-7.06,2.09V336h-2.42v-4.94c-4.94-.33-8.3-2.07-10.06-5.25a14.18,14.18,0,0,1-1.46-7h4.51a12.46,12.46,0,0,0,1.11,5.1q1.59,2.88,5.9,3.23V313.33c-3.68-.7-6.41-1.86-8.17-3.49a8.83,8.83,0,0,1-2.63-6.78A10.1,10.1,0,0,1,377.45,296.07Zm3.43,10.63a9.77,9.77,0,0,0,4.53,2v-12q-3.36.14-4.79,2a6.62,6.62,0,0,0-1.43,4A4.88,4.88,0,0,0,380.88,306.7Zm13,17.46a7.15,7.15,0,0,0,.86-3.55,5.57,5.57,0,0,0-2.34-4.84,15.14,15.14,0,0,0-4.54-1.83v13.4C390.74,327.21,392.74,326.14,393.85,324.16Z"/><path class="cls-2" d="M404.87,321.79q1.69-3.5,6.61-6.35l4.89-2.83a22.8,22.8,0,0,0,4.61-3.26,7.12,7.12,0,0,0,.18-9.92,7,7,0,0,0-5.09-1.88c-3.15,0-5.32,1.2-6.53,3.58a13,13,0,0,0-1.07,5.32h-4.66a16.35,16.35,0,0,1,1.76-7.77q3-5.31,10.52-5.3,6.27,0,9.16,3.38a11.36,11.36,0,0,1,2.9,7.55,10.24,10.24,0,0,1-3.09,7.49,30.67,30.67,0,0,1-6.39,4.38l-3.5,1.94a22.42,22.42,0,0,0-3.92,2.62,9.56,9.56,0,0,0-3.21,4.92H428V330H402.92A21.23,21.23,0,0,1,404.87,321.79Z"/><path class="cls-2" d="M454.67,299.34q2.44,4.5,2.45,12.36A29.67,29.67,0,0,1,454.9,324q-3.21,7-10.5,7a10.52,10.52,0,0,1-9.78-5.71q-2.67-4.77-2.68-12.79a31.59,31.59,0,0,1,1.61-10.68q3-8.31,10.88-8.31Q451.51,293.5,454.67,299.34Zm-4.61,24.31q2.12-3.16,2.12-11.78a29.08,29.08,0,0,0-1.54-10.23,5.82,5.82,0,0,0-5.94-4,6.22,6.22,0,0,0-5.94,3.81q-1.87,3.81-1.87,11.22a27.52,27.52,0,0,0,1.2,9q1.83,5.17,6.27,5.18A6.57,6.57,0,0,0,450.06,323.65Z"/><path class="cls-2" d="M477.2,302.7h4.53v3.87a15.74,15.74,0,0,1,3-2.93,8.94,8.94,0,0,1,5.15-1.55,8.12,8.12,0,0,1,5.25,1.6,8.6,8.6,0,0,1,2,2.71,9.79,9.79,0,0,1,3.6-3.25,9.93,9.93,0,0,1,4.63-1.06q5.5,0,7.5,4a13.06,13.06,0,0,1,1.07,5.76V330h-4.77V311c0-1.81-.45-3.06-1.36-3.74a5.41,5.41,0,0,0-3.33-1,6.59,6.59,0,0,0-4.65,1.81c-1.3,1.2-1.95,3.22-1.95,6V330H493.2V312.18a9.28,9.28,0,0,0-.66-4.05c-.7-1.28-2-1.91-3.9-1.91a6.75,6.75,0,0,0-4.73,2q-2.13,2-2.13,7.29V330H477.2Z"/><path class="cls-2" d="M540.44,305.43q3.63,3.51,3.62,10.33a17.79,17.79,0,0,1-3.19,10.9Q537.69,331,531,331a11.12,11.12,0,0,1-8.88-3.81q-3.29-3.79-3.29-10.22,0-6.87,3.47-10.95a11.61,11.61,0,0,1,9.31-4.07A12.19,12.19,0,0,1,540.44,305.43Zm-2.84,18.13a17.4,17.4,0,0,0,1.67-7.67,13.7,13.7,0,0,0-1.21-6.21q-1.9-3.76-6.6-3.77a6.5,6.5,0,0,0-6.05,3.21,15,15,0,0,0-1.89,7.74,13,13,0,0,0,1.89,7.25,6.65,6.65,0,0,0,6,2.9Q535.92,327,537.6,323.56Z"/><path class="cls-2" d="M549.82,302.7h4.36v4.71a10.45,10.45,0,0,1,2.62-3.35,6.85,6.85,0,0,1,4.82-2l.43,0,1.05.11v4.84a5.9,5.9,0,0,0-.76-.1c-.22,0-.48,0-.75,0a6.52,6.52,0,0,0-5.32,2.23,7.79,7.79,0,0,0-1.86,5.13V330h-4.59Z"/><path class="cls-2" d="M583.93,303.45a10.46,10.46,0,0,1,4.13,3.53,12.19,12.19,0,0,1,1.82,4.82,31.53,31.53,0,0,1,.41,6H570.44a11.75,11.75,0,0,0,1.94,6.68A6.51,6.51,0,0,0,578,327a7.24,7.24,0,0,0,5.69-2.38,8.13,8.13,0,0,0,1.68-3.2h4.51a9.52,9.52,0,0,1-1.18,3.35,12,12,0,0,1-2.25,3,10.5,10.5,0,0,1-5.13,2.75,15.63,15.63,0,0,1-3.72.41,11.39,11.39,0,0,1-8.58-3.71q-3.52-3.71-3.52-10.38t3.54-10.68a11.7,11.7,0,0,1,9.27-4.1A12.3,12.3,0,0,1,583.93,303.45Zm1.64,10.72a11.79,11.79,0,0,0-1.29-4.77q-1.86-3.31-6.24-3.31a6.87,6.87,0,0,0-5.25,2.28,8.61,8.61,0,0,0-2.25,5.8Z"/><path class="cls-2" d="M189,366.17a12.35,12.35,0,0,1,2.76,2.67V355.06h4.41v37.56h-4.12v-3.8a9.86,9.86,0,0,1-3.79,3.64,10.74,10.74,0,0,1-5,1.12,10.1,10.1,0,0,1-7.87-3.83q-3.32-3.84-3.32-10.21a17.67,17.67,0,0,1,3-10.33,9.92,9.92,0,0,1,8.67-4.37A9.61,9.61,0,0,1,189,366.17Zm-10.24,20.46a6.47,6.47,0,0,0,5.93,2.95,6.22,6.22,0,0,0,5.21-2.74q2-2.73,2-7.86t-2.1-7.65a6.55,6.55,0,0,0-5.2-2.49,6.87,6.87,0,0,0-5.59,2.65q-2.15,2.65-2.14,7.8A13.62,13.62,0,0,0,178.77,386.63Z"/><path class="cls-2" d="M222.81,368.05q3.62,3.51,3.62,10.33a17.79,17.79,0,0,1-3.19,10.9q-3.18,4.31-9.89,4.3a11.12,11.12,0,0,1-8.88-3.8q-3.3-3.81-3.29-10.22,0-6.88,3.46-10.95a11.61,11.61,0,0,1,9.32-4.08A12.23,12.23,0,0,1,222.81,368.05ZM220,386.19a17.31,17.31,0,0,0,1.68-7.68,13.76,13.76,0,0,0-1.21-6.21q-1.92-3.76-6.6-3.76a6.49,6.49,0,0,0-6.05,3.2,15,15,0,0,0-1.89,7.74,13,13,0,0,0,1.89,7.25c1.26,1.94,3.26,2.9,6,2.9C216.78,389.63,218.85,388.49,220,386.19Z"/><path class="cls-2" d="M232.19,355.18h4.59v37.44h-4.59Z"/><path class="cls-2" d="M243.78,355.18h4.59v37.44h-4.59Z"/><path class="cls-2" d="M269.88,376.1a2.5,2.5,0,0,0,2.11-1.32,4,4,0,0,0,.31-1.77,3.73,3.73,0,0,0-1.67-3.41,8.86,8.86,0,0,0-4.76-1.06c-2.4,0-4.09.64-5.09,1.94a6.37,6.37,0,0,0-1.09,3.2H255.4q.14-5.06,3.27-7a13.42,13.42,0,0,1,7.3-2,14.76,14.76,0,0,1,7.81,1.84,6.21,6.21,0,0,1,3,5.71v15.72a2,2,0,0,0,.29,1.14,1.42,1.42,0,0,0,1.24.44c.2,0,.43,0,.69,0l.81-.12v3.39a13.66,13.66,0,0,1-1.63.39,12.24,12.24,0,0,1-1.53.07,3.77,3.77,0,0,1-3.44-1.68,6.5,6.5,0,0,1-.79-2.52,11.67,11.67,0,0,1-4,3.18,12.43,12.43,0,0,1-5.78,1.35,8.61,8.61,0,0,1-6.21-2.3,7.67,7.67,0,0,1-2.4-5.77,7.41,7.41,0,0,1,2.37-5.87,11.27,11.27,0,0,1,6.22-2.57Zm-9.66,12.39a5.42,5.42,0,0,0,3.44,1.14,10.44,10.44,0,0,0,4.69-1.12,6.28,6.28,0,0,0,3.82-6.08v-3.68a8.12,8.12,0,0,1-2.16.89,17.94,17.94,0,0,1-2.59.51l-2.78.36a10.72,10.72,0,0,0-3.74,1,4.06,4.06,0,0,0-2.13,3.81A3.76,3.76,0,0,0,260.22,388.49Z"/><path class="cls-2" d="M284.4,365.32h4.36V370a10.3,10.3,0,0,1,2.63-3.35,6.77,6.77,0,0,1,4.81-2l.43,0,1.05.1v4.84c-.27-.05-.52-.08-.75-.1s-.48,0-.75,0a6.55,6.55,0,0,0-5.33,2.22,7.8,7.8,0,0,0-1.86,5.14v15.7H284.4Z"/><path class="cls-2" d="M304.38,384.05a6.63,6.63,0,0,0,1.17,3.52q1.77,2.22,6.14,2.22a9.22,9.22,0,0,0,4.58-1.11,3.68,3.68,0,0,0,2-3.43,2.9,2.9,0,0,0-1.58-2.67,18.33,18.33,0,0,0-4-1.3l-3.7-.92a18.14,18.14,0,0,1-5.23-1.94,5.77,5.77,0,0,1-3-5.15,7.81,7.81,0,0,1,2.82-6.26,11.38,11.38,0,0,1,7.61-2.4q6.25,0,9,3.62a7.78,7.78,0,0,1,1.68,4.94h-4.33a5.23,5.23,0,0,0-1.12-2.81q-1.62-1.8-5.61-1.8a6.85,6.85,0,0,0-4,1,3.09,3.09,0,0,0-1.37,2.62,3.21,3.21,0,0,0,1.8,2.84,10.9,10.9,0,0,0,3.06,1.12l3.09.74a24.08,24.08,0,0,1,6.75,2.32,6.12,6.12,0,0,1,2.68,5.53A8.4,8.4,0,0,1,320,391q-2.81,2.65-8.53,2.65-6.17,0-8.73-2.76a10.42,10.42,0,0,1-2.75-6.85Z"/><path class="cls-2" d="M344.39,357q1.61-2.34,6.19-2.34l.89,0,1,.08v4.18q-.72-.06-1-.06l-.6,0c-1.41,0-2.25.36-2.53,1.09a21.41,21.41,0,0,0-.41,5.51h4.59v3.62h-4.59v23.55h-4.54V369.07H339.6v-3.62h3.79v-4.28A8.17,8.17,0,0,1,344.39,357Z"/><path class="cls-2" d="M376.52,368.05q3.62,3.51,3.62,10.33a17.85,17.85,0,0,1-3.19,10.9q-3.19,4.31-9.89,4.3a11.15,11.15,0,0,1-8.89-3.8q-3.29-3.81-3.28-10.22,0-6.88,3.46-10.95a11.6,11.6,0,0,1,9.31-4.08A12.25,12.25,0,0,1,376.52,368.05Zm-2.85,18.14a17.31,17.31,0,0,0,1.68-7.68,13.9,13.9,0,0,0-1.21-6.21q-1.92-3.76-6.6-3.76a6.48,6.48,0,0,0-6.05,3.2,15,15,0,0,0-1.89,7.74,13,13,0,0,0,1.89,7.25c1.26,1.94,3.26,2.9,6,2.9C370.49,389.63,372.55,388.49,373.67,386.19Z"/><path class="cls-2" d="M385.9,365.32h4.35V370a10.44,10.44,0,0,1,2.63-3.35,6.8,6.8,0,0,1,4.82-2l.43,0,1,.1v4.84c-.27-.05-.52-.08-.75-.1s-.48,0-.75,0a6.57,6.57,0,0,0-5.33,2.22,7.8,7.8,0,0,0-1.86,5.14v15.7H385.9Z"/><path class="cls-2" d="M434.71,365.32h5.07q-1,2.64-4.31,12-2.49,7-4.18,11.47-4,10.44-5.6,12.73t-5.6,2.29a11.44,11.44,0,0,1-1.49-.07c-.35-.06-.77-.15-1.28-.29v-4.17a14.73,14.73,0,0,0,1.73.4,5.58,5.58,0,0,0,.94.08,3.29,3.29,0,0,0,1.87-.42,3.77,3.77,0,0,0,1-1c.09-.14.39-.83.92-2.08s.91-2.19,1.14-2.8l-10.09-28.1H420l7.31,22.23Z"/><path class="cls-2" d="M463.52,368.05q3.62,3.51,3.61,10.33a17.85,17.85,0,0,1-3.18,10.9q-3.19,4.31-9.9,4.3a11.12,11.12,0,0,1-8.88-3.8q-3.29-3.81-3.29-10.22,0-6.88,3.47-10.95a11.58,11.58,0,0,1,9.31-4.08A12.27,12.27,0,0,1,463.52,368.05Zm-2.85,18.14a17.44,17.44,0,0,0,1.67-7.68,13.76,13.76,0,0,0-1.21-6.21q-1.9-3.76-6.6-3.76a6.46,6.46,0,0,0-6,3.2,14.9,14.9,0,0,0-1.89,7.74,12.93,12.93,0,0,0,1.89,7.25c1.25,1.94,3.25,2.9,6,2.9C457.49,389.63,459.55,388.49,460.67,386.19Z"/><path class="cls-2" d="M477.35,365.32v18.12a7.84,7.84,0,0,0,.65,3.42q1.19,2.44,4.44,2.44a6.26,6.26,0,0,0,6.35-4.28,17.41,17.41,0,0,0,.92-6.29V365.32h4.59v27.3H490l0-4a9.16,9.16,0,0,1-2.18,2.62,9.45,9.45,0,0,1-6.25,2.14c-3.82,0-6.42-1.29-7.8-3.89a11.85,11.85,0,0,1-1.13-5.59V365.32Z"/><path class="cls-2" d="M501.92,365.32h4.35V370a10.44,10.44,0,0,1,2.63-3.35,6.8,6.8,0,0,1,4.82-2l.43,0,1,.1v4.84c-.27-.05-.52-.08-.75-.1s-.48,0-.75,0a6.57,6.57,0,0,0-5.33,2.22,7.8,7.8,0,0,0-1.86,5.14v15.7h-4.58Z"/><path class="cls-2" d="M533.67,365.32H538v3.88a12,12,0,0,1,4.1-3.44,10.88,10.88,0,0,1,4.81-1.05c3.88,0,6.49,1.35,7.85,4.05a14.39,14.39,0,0,1,1.12,6.35v17.51h-4.66V375.41a9.34,9.34,0,0,0-.74-4,4.47,4.47,0,0,0-4.43-2.55,9.1,9.1,0,0,0-2.68.33,6.91,6.91,0,0,0-3.31,2.24,6.72,6.72,0,0,0-1.49,2.8,18.58,18.58,0,0,0-.35,4.11v14.3h-4.58Z"/><path class="cls-2" d="M579.55,366.08a10.32,10.32,0,0,1,4.13,3.53,12.15,12.15,0,0,1,1.82,4.81,31.66,31.66,0,0,1,.41,6H566.06a11.8,11.8,0,0,0,1.94,6.68,6.5,6.5,0,0,0,5.64,2.51,7.24,7.24,0,0,0,5.69-2.38,8.07,8.07,0,0,0,1.68-3.2h4.51a9.46,9.46,0,0,1-1.18,3.35,11.77,11.77,0,0,1-2.25,3,10.6,10.6,0,0,1-5.13,2.76,15.65,15.65,0,0,1-3.72.4,11.38,11.38,0,0,1-8.58-3.7q-3.52-3.72-3.52-10.39t3.54-10.67a11.67,11.67,0,0,1,9.27-4.11A12.31,12.31,0,0,1,579.55,366.08Zm1.64,10.71A11.74,11.74,0,0,0,579.9,372q-1.86-3.31-6.24-3.32a6.87,6.87,0,0,0-5.25,2.28,8.63,8.63,0,0,0-2.25,5.8Z"/><path class="cls-2" d="M589.12,365.32h5.94l6.26,9.61,6.35-9.61,5.58.13-9.2,13.18,9.61,14H607.8L601,382.37l-6.58,10.25h-5.81l9.61-14Z"/><path class="cls-2" d="M618.73,357.71h4.63v7.61h4.36v3.75h-4.36v17.81a1.93,1.93,0,0,0,1,1.91,4.09,4.09,0,0,0,1.79.28h.71a8.37,8.37,0,0,0,.89-.09v3.65a10.58,10.58,0,0,1-1.64.33,17.66,17.66,0,0,1-1.85.1q-3.21,0-4.36-1.65a7.3,7.3,0,0,1-1.14-4.26V369.07H615v-3.75h3.7Z"/><path class="cls-2" d="M185.65,430.89q3.78-4.14,10.62-4.21v-4.52h3.22v4.45q6.76.48,10.38,4a12.89,12.89,0,0,1,3.79,9.27h-5.95a10,10,0,0,0-1.39-4.45c-1.43-2.29-3.7-3.49-6.83-3.6v16.55q7.89,2.2,10.71,4.14,4.58,3.19,4.58,9.45,0,9-5.88,12.84-3.26,2.1-9.41,2.79v6.59h-3.22v-6.59q-9.9-.66-13.43-7-1.93-3.43-1.93-9.28h6a16.57,16.57,0,0,0,1.47,6.8q2.13,3.84,7.88,4.31V453.89c-4.92-.92-8.55-2.48-10.89-4.65s-3.52-5.19-3.52-9A13.45,13.45,0,0,1,185.65,430.89Zm4.57,14.17a13.05,13.05,0,0,0,6.05,2.65v-16c-3,.12-5.13,1-6.39,2.72a8.8,8.8,0,0,0-1.91,5.33A6.53,6.53,0,0,0,190.22,445.06Zm17.29,23.27a9.41,9.41,0,0,0,1.16-4.72,7.41,7.41,0,0,0-3.13-6.45,20,20,0,0,0-6-2.45v17.87Q205.31,472.31,207.51,468.33Z"/><path class="cls-2" d="M222.21,465.17q2.25-4.65,8.81-8.46l6.53-3.77a30.91,30.91,0,0,0,6.15-4.35,9.54,9.54,0,0,0,.23-13.23,9.3,9.3,0,0,0-6.79-2.5q-6.28,0-8.7,4.77a17.16,17.16,0,0,0-1.43,7.09H220.8a21.68,21.68,0,0,1,2.34-10.36q4-7.07,14-7.07,8.36,0,12.22,4.52a15.1,15.1,0,0,1,3.85,10.06,13.7,13.7,0,0,1-4.11,10,40.53,40.53,0,0,1-8.53,5.84L236,460.28a29.6,29.6,0,0,0-5.23,3.5,12.67,12.67,0,0,0-4.28,6.56H253v5.77H219.61A28.22,28.22,0,0,1,222.21,465.17Z"/><path class="cls-2" d="M264.73,463.71q.6,5.24,4.85,7.24a11.74,11.74,0,0,0,5,1c3.63,0,6.31-1.16,8.06-3.47a12.46,12.46,0,0,0,2.61-7.67q0-5.1-3.11-7.89a10.82,10.82,0,0,0-7.46-2.78,11.14,11.14,0,0,0-5.41,1.22,11.59,11.59,0,0,0-3.86,3.4l-5.3-.31,3.7-26.19h25.28v5.91H268.43l-2.07,13.52a15.37,15.37,0,0,1,3.22-1.94,16.57,16.57,0,0,1,6.29-1.12A16.09,16.09,0,0,1,287.22,449a14.26,14.26,0,0,1,4.65,10.94,18.77,18.77,0,0,1-4.26,12.16q-4.26,5.26-13.61,5.27A17.32,17.32,0,0,1,263.49,474q-4.58-3.35-5.12-10.28Z"/><path class="cls-2" d="M320.28,426.2H343a22.23,22.23,0,0,1,9.24,1.67q6.92,3.19,6.91,11.79a12.26,12.26,0,0,1-7,11.92,10.3,10.3,0,0,1,4.4,3.13c1,1.29,1.53,3.39,1.64,6.28l.24,6.7a20.67,20.67,0,0,0,.48,4.25A4.17,4.17,0,0,0,361,475v1.12h-8.29a6.59,6.59,0,0,1-.54-1.66,30.94,30.94,0,0,1-.34-3.94l-.41-8.33q-.23-4.89-3.53-6.55a14.26,14.26,0,0,0-5.91-.92H327v21.4h-6.76Zm22,22.87a12.43,12.43,0,0,0,7.31-1.9q2.7-1.91,2.7-6.87c0-3.55-1.26-6-3.77-7.27a12,12,0,0,0-5.38-1H327v17.06Z"/><path class="cls-2" d="M370.36,426.2h36.21v6.12H377v15.15h27.38v5.78H377v16.92h30.13v5.94H370.36Z"/><path class="cls-2" d="M419.44,426.2l9.4,40.55,11.29-40.55h7.3l11.31,40.63,9.41-40.63h7.41l-13.11,49.91h-7.1l-11.52-41.38-11.59,41.38h-7.1l-13-49.91Z"/><path class="cls-2" d="M493.81,426.2h7.64l18.11,49.91h-7.41l-5.21-14.95H487.36L482,476.11H475ZM505,455.66l-7.68-22.05-8,22.05Z"/><path class="cls-2" d="M526.47,426.2h22.69a22.23,22.23,0,0,1,9.24,1.67q6.92,3.19,6.91,11.79a12.26,12.26,0,0,1-7,11.92,10.36,10.36,0,0,1,4.4,3.13c1,1.29,1.53,3.39,1.64,6.28l.24,6.7a20.67,20.67,0,0,0,.48,4.25,4.15,4.15,0,0,0,2.17,3.05v1.12h-8.29a5.88,5.88,0,0,1-.54-1.66,30.94,30.94,0,0,1-.34-3.94l-.41-8.33q-.23-4.89-3.53-6.55a14.29,14.29,0,0,0-5.91-.92h-15v21.4h-6.77Zm22,22.87a12.44,12.44,0,0,0,7.32-1.9q2.7-1.91,2.7-6.87c0-3.55-1.26-6-3.77-7.27a12,12,0,0,0-5.39-1h-16v17.06Z"/><path class="cls-2" d="M576.21,426.2h19.95q10.17,0,15.76,7.31,5,6.58,5,16.88A34.17,34.17,0,0,1,614,464.77q-5.21,11.34-17.87,11.34H576.21Zm18.63,44.14a17.74,17.74,0,0,0,5.51-.72,12.16,12.16,0,0,0,6.31-5.09,21.23,21.23,0,0,0,2.83-7.75,30.39,30.39,0,0,0,.5-5.23q0-9.27-3.61-14.41T594.77,432H583v38.33Z"/></g></g></svg>