<svg xmlns="http://www.w3.org/2000/svg" viewBox="0 0 27.93 27.93"><defs><style>.cls-1{fill:#333;}</style></defs><title>facebook</title><g id="Layer_2" data-name="Layer 2"><g id="Layer_1-2" data-name="Layer 1"><g id="layer1"><path id="rect5220" class="cls-1" d="M0,4.65V23.27a4.66,4.66,0,0,0,4.65,4.66H23.27a4.66,4.66,0,0,0,4.66-4.66V4.65A4.66,4.66,0,0,0,23.27,0H4.65A4.65,4.65,0,0,0,0,4.65Zm15.86,0h2.76v3.5h-2c-.43-.55-1.49.55-1.49.55v1.77h3.43L18.13,14h-3v8.15H12.8V14H10.47V10.47H12.8V8.08C12.46,6.23,15.86,4.65,15.86,4.65Z"/></g></g></g></svg>