<svg xmlns="http://www.w3.org/2000/svg" viewBox="0 0 27.93 27.93"><defs><style>.cls-1{fill:#333;}</style></defs><title>twitter</title><g id="Layer_2" data-name="Layer 2"><g id="Layer_1-2" data-name="Layer 1"><g id="layer1"><path id="rect5230" class="cls-1" d="M0,4.65V23.27a4.66,4.66,0,0,0,4.65,4.66H23.27a4.66,4.66,0,0,0,4.66-4.66V4.65A4.66,4.66,0,0,0,23.27,0H4.65A4.65,4.65,0,0,0,0,4.65ZM17.34,5.82A3.68,3.68,0,0,1,20,7a6.73,6.73,0,0,0,2.2-.89,3.73,3.73,0,0,1-1.45,2,7.54,7.54,0,0,0,1.93-.49A8.59,8.59,0,0,1,21,9.33v.32c0,.08,0,.16,0,.25A10,10,0,0,1,11,20.14h-.33a10.37,10.37,0,0,1-5.42-1.55,7.57,7.57,0,0,0,5.17-1.54,3.51,3.51,0,0,1-3.32-2.51,4.45,4.45,0,0,0,1.6,0,3.65,3.65,0,0,1-2.88-3.6,3.81,3.81,0,0,0,1.6.44A3.61,3.61,0,0,1,6.35,6.48a10.14,10.14,0,0,0,7.41,3.82,3.75,3.75,0,0,1,1.16-3.62,3.47,3.47,0,0,1,2.39-.86Z"/></g></g></g></svg>